<svg id="Layer_1" data-name="Layer 1" xmlns="http://www.w3.org/2000/svg" viewBox="0 0 358.5 279.94"><path d="M195.73,30.89c-.87,9.91-1.88,20.85-2.77,31.8-.84,10.42-1.44,20.87-2.38,31.28a42.41,42.41,0,0,1-2.15,9.53c-.84,2.51-3.38,2.68-5.63,2.58-8.42-.4-14.22-4.76-15.93-13-2.87-13.8-6.57-27.44-9.1-41.3a134.33,134.33,0,0,1-2.13-26.1c.06-4.74,2.21-9.64,4.27-14.08,1-2.11,3.72-3.76,6-4.82,5.82-2.66,11.74-5.19,18.49-3.31a14.28,14.28,0,0,1,10.25,12.77C195.1,20.77,195.33,25.31,195.73,30.89Z"/><path d="M171.06,168.17c1.67,1.67,2.68,3.12,1.51,5.63a4.63,4.63,0,0,0,3.17,6.56c6.5,1.58,13,3.78,19.85,1.27,5.6-2,8.78-3.68,5.39-10.8-.47-1,.45-2.94,1.23-4.1a3.12,3.12,0,0,1,2.93-.44c9,4.31,18,8.7,26.86,13.29a6.5,6.5,0,0,1,2.7,3.74c2.2,7.36,4.33,14.74,6.17,22.2s3.32,15,4.86,22.48c1.05,5.09,1.94,10.22,2.94,15.57,5.28-.8,11.36-1.83,17.46-2.64,10.87-1.44,21.74-3,32.65-4.06,11.86-1.2,23.78-1.82,35.64-3,7.66-.78,9.94-1.64,17.88-2.8.56.79,1.33,1.88,2.57,3.61-1.79.67-3.21,1.54-4.7,1.71-9.4,1.1-13.49,1.63-22.91,2.47-7.58.67-15.19.89-22.77,1.53-10.3.87-20.58,1.91-30.87,2.93-6.26.62-12.51,1.34-18.77,2-2.48.28-5,.59-7.43,1a2.19,2.19,0,0,0-1.32.81c-3.65,5.05-9.37,6.1-14.78,7.82-2.77.88-5.45,2.05-8.94,3.38,1.48.62,2.11.93,2.77,1.14,3.51,1.16,4.95,3.13,4.92,6.78-.06,8.39-.07,8.62-8.36,8.4-8.65-.24-17.29-.92-25.92-1.53-16.86-1.21-33.74-2.2-50.56-3.89-9.67-1-19.45-2.07-28.09-7.67-1.91-1.23-5.48-.44-8.14.13-7,1.5-13.82,3.75-20.84,5-6.32,1.14-12.8,1.29-19.19,2-4.49.51-8.95,1.44-13.45,1.89-7.64.77-15.32,1.12-23,2-4.75.56-14.5,2-19.21,3-2.58.51-5.14,1.14-7.75,1.52-.59.09-1.31-.62-2-1,.46-.62.82-1.65,1.41-1.81,2.73-.75,5.73-.81,8.27-1.94,12.53-5.58,31.11-5,44.24-6.68,8-1,16.12-1.64,24.16-2.64,5.62-.69,11.2-1.66,16.79-2.61,4.26-.71,8.49-1.6,12.74-2.36,2.11-.37,2.79-1.1,3-3.63a91.45,91.45,0,0,1,3.21-17c3.91-13.67,7.9-27.34,12.57-40.77,2-5.89,5.48-11.43,9-16.62,1.47-2.16,4.71-3.5,7.42-4.35,6.61-2.09,13.38-3.63,20.06-5.5A33.52,33.52,0,0,0,171.06,168.17Zm-12.71,25.64,1.74.58c-.52,2.62-1.09,5.23-1.54,7.85q-2.73,15.75-5.39,31.51a38.79,38.79,0,0,0-.71,5.95c0,3.83,1.25,5.17,5,6,4.93,1.14,9.82,2.48,14.77,3.58,9.94,2.23,19.56,6.95,30.22,3.85a16.65,16.65,0,0,1,5.33-.12,79.36,79.36,0,0,0,28.77-3.56c5.68-1.87,7.17-4.11,7-10.09a27.35,27.35,0,0,0-.7-5c-.91-4.11-2-8.17-2.88-12.28-.77-3.7-1.21-7.46-2-11.16-1.09-5.23-2.26-10.45-3.55-15.64-1.46-5.93-1.51-12.65-8.44-15.69-1.54-.67-2.92-1.69-4.44-2.4-3.66-1.7-7.35-3.31-11.26-5.06-.75,1.77-1.32,3.35-2.08,4.84a9.53,9.53,0,0,1-2.2,3.36,29.6,29.6,0,0,1-13.8,5.94c-6.41,1-12.41-.87-18.35-2.47-4.94-1.33-9.71-3.62-9.73-10.58-6.57,1.68-12.69,3.18-18.76,4.86a5.4,5.4,0,0,0-3,2.13c-3.22,5.68-7,11.2-9.14,17.29-3.67,10.42-6.32,21.21-9.28,31.87-2,7.31-4.15,14.62-5.67,22-1.08,5.33.94,8.74,6.29,10A210,210,0,0,0,150.35,266c11.42,1.19,22.94,1.4,34.4,2.23,10.94.8,21.85,2,32.78,2.73,3.13.21,6.32-.53,9.74-.85-.53-1.43-1.07-2.13-1-2.72.67-3.44-1.24-4.51-4.15-5-10.21-1.6-20.48-2.91-30.59-5q-18-3.71-35.69-8.63c-6.77-1.87-9.46-7.62-7.42-13.36a43.68,43.68,0,0,0,1.72-6.34c1.89-9.63,3.63-19.29,5.61-28.9C156.25,198,157.48,195.93,158.35,193.81Z"/><path d="M188.62,121.21A33.24,33.24,0,0,1,194.2,124c10.07,7.13,10.72,16.89,8.71,28.16-1.25,7-5.22,11.83-9.43,16.69-4.63,5.36-11.31,5.17-15.48-.54-6-8.25-9.91-17.46-9.4-28a22.56,22.56,0,0,1,6-14.61C178.12,121.84,182.76,121.9,188.62,121.21Z"/><path d="M217,197.26c.95,4.19,1.89,8.38,2.86,12.57,1.56,6.76,3,13.55,4.77,20.27.6,2.3-.11,3.35-2.06,4.16-11,4.57-22,9.08-33.8,11.41-3.27.65-6.36,2.18-9.6,3-1,.26-2.16-.35-3.25-.56.71-.78,1.28-2,2.14-2.25,4.57-1.32,9.27-2.2,13.81-3.6,5.49-1.7,10.88-3.75,16.31-5.67,3.17-1.11,6.32-2.29,9.5-3.39,1.94-.66,2.6-1.82,2.12-3.88-1.53-6.58-3.08-13.17-4.32-19.8a51.09,51.09,0,0,1-.62-9.42c0-1.07.87-2.14,1.34-3.21Z"/><path d="M4.51,259.27l3.17-.72q2.77-.66,3.88-4.05l12-37.33c.58-1.92,1-3.28,1.27-4.08a6.87,6.87,0,0,0,.39-2.07,2,2,0,0,0-.59-1.47,2.67,2.67,0,0,0-1.94-.59l-3.65.22.95-2.66,16.33-2a33.19,33.19,0,0,1,8.08.06,19.64,19.64,0,0,1,7.85,2.71,16.74,16.74,0,0,1,5.9,6.35q2.34,4.18,2.34,11.08a30.8,30.8,0,0,1-1.35,9.13,37.22,37.22,0,0,1-3.6,8.13,36.08,36.08,0,0,1-5.27,6.81,29.91,29.91,0,0,1-6.42,5,36.58,36.58,0,0,1-8.48,3.56,68.77,68.77,0,0,1-9.59,1.87L3.64,261.91Zm21.16-3a29.3,29.3,0,0,0,12-4,31.26,31.26,0,0,0,13.6-17.43,35,35,0,0,0,1.66-10.47,24.16,24.16,0,0,0-1.43-9.06,12.7,12.7,0,0,0-3.76-5.35,11.51,11.51,0,0,0-5.31-2.35,20.66,20.66,0,0,0-6-.12,4.92,4.92,0,0,0-2,.61,4,4,0,0,0-1.23,1.1,5.48,5.48,0,0,0-.75,1.44c-.19.53-.36,1.06-.52,1.61l-12,37.4a22,22,0,0,0-.55,2.13,9.18,9.18,0,0,0-.24,1.61,5.73,5.73,0,0,0,.2,1.56A1.87,1.87,0,0,0,20.2,256a4.17,4.17,0,0,0,1.86.48,17.87,17.87,0,0,0,3.29-.18Z"/><path d="M101,236.27c.31-.93.58-1.79.79-2.55a7.36,7.36,0,0,0,.32-1.63,2,2,0,0,0-.6-1.47,2.64,2.64,0,0,0-1.94-.59l-4.36.31,1-2.66,19.66-2.45-.87,2.64-2.54.64q-2.78.66-3.88,4.05l-4.28,13.13c-.43.32-1.14.81-2.14,1.46a40.07,40.07,0,0,1-3.73,2.09,42.72,42.72,0,0,1-5.07,2.1,29.86,29.86,0,0,1-6.1,1.4,25.15,25.15,0,0,1-8.09-.18,14.36,14.36,0,0,1-6.22-2.79,13.16,13.16,0,0,1-4-5.49A22.13,22.13,0,0,1,67.51,236a41,41,0,0,1,3-16,44.75,44.75,0,0,1,7.81-12.54A39.29,39.29,0,0,1,89,199a32.37,32.37,0,0,1,11.37-3.84A22.86,22.86,0,0,1,106,195a23.23,23.23,0,0,1,4,.81,24.88,24.88,0,0,1,2.66,1,3.18,3.18,0,0,0,1.66.38,1.57,1.57,0,0,0,1.11-.85,6.07,6.07,0,0,0,.71-1.59l2.3-.29-4.2,18.83-2.69.34-.16-3.55a25.81,25.81,0,0,0-.64-5.15,11,11,0,0,0-1.78-4.06,7.49,7.49,0,0,0-3.21-2.49,9.83,9.83,0,0,0-5-.45A20.58,20.58,0,0,0,90.93,202a34.75,34.75,0,0,0-8.12,8.59,44.75,44.75,0,0,0-5.55,11.55,41.9,41.9,0,0,0-2.06,12.89,32.34,32.34,0,0,0,.48,5.49,12.92,12.92,0,0,0,1.86,5,9,9,0,0,0,3.92,3.35,12,12,0,0,0,6.58.69,21.53,21.53,0,0,0,3.21-.68,10.67,10.67,0,0,0,3.29-1.64,14.42,14.42,0,0,0,3-3.07,18.05,18.05,0,0,0,2.46-5Z"/><path d="M251.45,228.4l3.17-.71q2.78-.67,3.88-4.06l12.05-37.32c.58-1.92,1-3.29,1.27-4.09a6.76,6.76,0,0,0,.39-2.07,2,2,0,0,0-.59-1.47,2.67,2.67,0,0,0-1.94-.59l-3.65.22,1-2.65,19.58-2.45-.87,2.65-2.54.63c-1.85.44-3.14,1.79-3.89,4l-6.41,19.82,18.86-18.92a28.23,28.23,0,0,0,2.77-3.08,3.16,3.16,0,0,0,.71-1.79c0-.95-.38-1.46-1.14-1.52a15.3,15.3,0,0,0-3,.13l.87-2.64,17.19-2.15-.87,2.64a14.81,14.81,0,0,0-3,.81,11.88,11.88,0,0,0-2.61,1.52,33.28,33.28,0,0,0-3.14,2.73q-1.77,1.72-4.55,4.53L281.64,196l10.7,22.21a9.31,9.31,0,0,0,3.29,3.31c1.29.74,3.16.95,5.59.65l-.87,2.64L279,227.49l.87-2.65,2.38-.45a3.14,3.14,0,0,0,2.57-1.75c.35-.89.07-2.07-.83-3.54l-7.84-17.57-5.47,5.52-3.49,10.82c-.63,1.93-1.08,3.29-1.35,4.09a6.87,6.87,0,0,0-.39,2.07,2,2,0,0,0,.59,1.47,2.61,2.61,0,0,0,1.94.59l3.49-.2-.95,2.66-20,2.49Z"/><path d="M305.42,221.65l3.17-.71q2.78-.66,3.88-4.05l12-37.33c.58-1.92,1-3.28,1.27-4.08a6.87,6.87,0,0,0,.39-2.07,2,2,0,0,0-.59-1.47,2.62,2.62,0,0,0-1.94-.59l-3.65.22.95-2.66,20.76-2.59-.87,2.64-3.72.78q-2.78.67-3.89,4l-11.8,36.67c-.59,1.92-1,3.27-1.27,4a6.25,6.25,0,0,0-.4,2,2.18,2.18,0,0,0,.64,1.55,2.72,2.72,0,0,0,2.37.45l16.73-2.09a2.93,2.93,0,0,0,1.3-.4,3.07,3.07,0,0,0,.84-.9l7.21-10.25,2.45-.31-4,14.37-42.79,5.35Z"/></svg>